<mxfile host="Electron" agent="Mozilla/5.0 (Windows NT 10.0; Win64; x64) AppleWebKit/537.36 (KHTML, like Gecko) draw.io/28.1.2 Chrome/138.0.7204.243 Electron/37.4.0 Safari/537.36" version="28.1.2">
  <diagram name="PÃ¡gina-1" id="jQoiph2c1nl-3ZJ2nl2n">
    <mxGraphModel dx="872" dy="537" grid="1" gridSize="10" guides="1" tooltips="1" connect="1" arrows="1" fold="1" page="1" pageScale="1" pageWidth="827" pageHeight="1169" math="0" shadow="0">
      <root>
        <mxCell id="0" />
        <mxCell id="1" parent="0" />
        <mxCell id="YgXC3Uh9Jd0HWionlt_S-6" value="" style="group" parent="1" vertex="1" connectable="0">
          <mxGeometry x="190" y="152" width="141" height="108" as="geometry" />
        </mxCell>
        <mxCell id="OkkiLNKMATkOTUkjnKhW-3" value="" style="rounded=0;whiteSpace=wrap;html=1;fillColor=#ffcccc;strokeColor=#36393D;" parent="YgXC3Uh9Jd0HWionlt_S-6" vertex="1">
          <mxGeometry x="10" width="97" height="78" as="geometry" />
        </mxCell>
        <mxCell id="_NtyxQ0_7e0Htwn68GD2-1" value="" style="rounded=0;whiteSpace=wrap;html=1;fillColor=#d5e8d4;strokeColor=#000000;" parent="YgXC3Uh9Jd0HWionlt_S-6" vertex="1">
          <mxGeometry x="57" y="13" width="39" height="20" as="geometry" />
        </mxCell>
        <mxCell id="_NtyxQ0_7e0Htwn68GD2-5" value="&lt;font size=&quot;1&quot; face=&quot;Courier New&quot;&gt;&lt;b style=&quot;font-size: 16px;&quot;&gt;Node&lt;/b&gt;&lt;/font&gt;" style="text;html=1;align=center;verticalAlign=middle;whiteSpace=wrap;rounded=0;" parent="YgXC3Uh9Jd0HWionlt_S-6" vertex="1">
          <mxGeometry x="28.5" y="78" width="60" height="30" as="geometry" />
        </mxCell>
        <mxCell id="_NtyxQ0_7e0Htwn68GD2-6" value="" style="endArrow=classic;html=1;rounded=0;exitX=1;exitY=0.5;exitDx=0;exitDy=0;" parent="YgXC3Uh9Jd0HWionlt_S-6" source="YgXC3Uh9Jd0HWionlt_S-1" edge="1">
          <mxGeometry width="50" height="50" relative="1" as="geometry">
            <mxPoint x="100" y="57.5" as="sourcePoint" />
            <mxPoint x="141" y="58" as="targetPoint" />
          </mxGeometry>
        </mxCell>
        <mxCell id="YgXC3Uh9Jd0HWionlt_S-1" value="" style="ellipse;whiteSpace=wrap;html=1;aspect=fixed;fillColor=#fff2cc;strokeColor=#000000;" parent="YgXC3Uh9Jd0HWionlt_S-6" vertex="1">
          <mxGeometry x="65" y="48" width="20" height="20" as="geometry" />
        </mxCell>
        <mxCell id="YgXC3Uh9Jd0HWionlt_S-2" value="&lt;font face=&quot;Courier New&quot;&gt;&lt;b style=&quot;&quot;&gt;data&lt;/b&gt;&lt;/font&gt;" style="text;html=1;align=right;verticalAlign=middle;whiteSpace=wrap;rounded=0;" parent="YgXC3Uh9Jd0HWionlt_S-6" vertex="1">
          <mxGeometry y="13" width="50" height="20" as="geometry" />
        </mxCell>
        <mxCell id="YgXC3Uh9Jd0HWionlt_S-3" value="&lt;font face=&quot;Courier New&quot;&gt;&lt;b style=&quot;&quot;&gt;next&lt;/b&gt;&lt;/font&gt;" style="text;html=1;align=right;verticalAlign=middle;whiteSpace=wrap;rounded=0;" parent="YgXC3Uh9Jd0HWionlt_S-6" vertex="1">
          <mxGeometry x="10" y="48" width="40" height="20" as="geometry" />
        </mxCell>
        <mxCell id="q2p2l04jLQFCcFe1fas7-1" value="&lt;font style=&quot;font-size: 14px;&quot; face=&quot;Courier New&quot;&gt;&lt;b&gt;data&lt;/b&gt;&lt;/font&gt;" style="rounded=0;whiteSpace=wrap;html=1;fillColor=#d5e8d4;strokeColor=#000000;" vertex="1" parent="1">
          <mxGeometry x="430" y="171" width="70" height="40" as="geometry" />
        </mxCell>
        <mxCell id="q2p2l04jLQFCcFe1fas7-2" value="&lt;font style=&quot;font-size: 14px;&quot; face=&quot;Courier New&quot;&gt;&lt;b&gt;next&lt;/b&gt;&lt;/font&gt;" style="rounded=0;whiteSpace=wrap;html=1;fillColor=#fff2cc;strokeColor=#000000;" vertex="1" parent="1">
          <mxGeometry x="500" y="171" width="50" height="40" as="geometry" />
        </mxCell>
        <mxCell id="q2p2l04jLQFCcFe1fas7-3" value="&lt;font size=&quot;1&quot; face=&quot;Courier New&quot;&gt;&lt;b style=&quot;font-size: 16px;&quot;&gt;Node&lt;/b&gt;&lt;/font&gt;" style="text;html=1;align=center;verticalAlign=middle;whiteSpace=wrap;rounded=0;" vertex="1" parent="1">
          <mxGeometry x="464" y="211" width="60" height="30" as="geometry" />
        </mxCell>
        <mxCell id="q2p2l04jLQFCcFe1fas7-4" value="" style="endArrow=classic;html=1;rounded=0;exitX=1;exitY=0.5;exitDx=0;exitDy=0;" edge="1" parent="1" source="q2p2l04jLQFCcFe1fas7-2">
          <mxGeometry width="50" height="50" relative="1" as="geometry">
            <mxPoint x="660" y="311" as="sourcePoint" />
            <mxPoint x="610" y="191" as="targetPoint" />
          </mxGeometry>
        </mxCell>
      </root>
    </mxGraphModel>
  </diagram>
</mxfile>
